<svg width="128" height="36" viewBox="0 0 128 36" fill="none" xmlns="http://www.w3.org/2000/svg">
<path d="M44.7487 30.18C44.6021 30.18 44.4847 30.136 44.3967 30.048C44.3087 29.96 44.2647 29.8427 44.2647 29.696V15.044C44.2647 14.8973 44.3087 14.78 44.3967 14.692C44.4847 14.604 44.6021 14.56 44.7487 14.56H45.1227C45.2694 14.56 45.3867 14.604 45.4747 14.692C45.5627 14.78 45.6067 14.8973 45.6067 15.044V16.078C46.4574 14.9193 47.6894 14.34 49.3027 14.34C50.8867 14.34 52.0527 14.846 52.8007 15.858C53.5634 16.8553 53.9667 18.0873 54.0107 19.554C54.0254 19.7007 54.0327 19.9427 54.0327 20.28C54.0327 20.6173 54.0254 20.8593 54.0107 21.006C53.9667 22.4727 53.5634 23.712 52.8007 24.724C52.0527 25.7213 50.8867 26.22 49.3027 26.22C47.7041 26.22 46.4721 25.6407 45.6067 24.482V29.696C45.6067 29.8427 45.5627 29.96 45.4747 30.048C45.3867 30.136 45.2694 30.18 45.1227 30.18H44.7487ZM49.1707 24.944C50.3587 24.944 51.2241 24.57 51.7667 23.822C52.3241 23.0593 52.6247 22.084 52.6687 20.896C52.6834 20.7493 52.6907 20.544 52.6907 20.28C52.6907 18.916 52.4267 17.8013 51.8987 16.936C51.3707 16.056 50.4614 15.616 49.1707 15.616C48.0121 15.616 47.1394 16.0047 46.5527 16.782C45.9661 17.5447 45.6507 18.4467 45.6067 19.488L45.5847 20.346L45.6067 21.204C45.6214 21.8347 45.7607 22.436 46.0247 23.008C46.2887 23.5653 46.6847 24.0273 47.2127 24.394C47.7407 24.7607 48.3934 24.944 49.1707 24.944ZM60.5159 26.22C59.0786 26.22 57.9859 25.7653 57.2379 24.856C56.4899 23.9467 56.1159 22.7587 56.1159 21.292V15.044C56.1159 14.8973 56.1599 14.78 56.2479 14.692C56.3359 14.604 56.4533 14.56 56.5999 14.56H56.9739C57.1206 14.56 57.2379 14.604 57.3259 14.692C57.4139 14.78 57.4579 14.8973 57.4579 15.044V21.182C57.4579 23.69 58.5506 24.944 60.7359 24.944C61.7919 24.944 62.6279 24.614 63.2439 23.954C63.8746 23.2793 64.1899 22.3553 64.1899 21.182V15.044C64.1899 14.8973 64.2339 14.78 64.3219 14.692C64.4099 14.604 64.5273 14.56 64.6739 14.56H65.0479C65.1946 14.56 65.3119 14.604 65.3999 14.692C65.4879 14.78 65.5319 14.8973 65.5319 15.044V25.516C65.5319 25.6627 65.4879 25.78 65.3999 25.868C65.3119 25.956 65.1946 26 65.0479 26H64.6739C64.5273 26 64.4099 25.956 64.3219 25.868C64.2339 25.78 64.1899 25.6627 64.1899 25.516V24.482C63.7499 25.054 63.2439 25.4867 62.6719 25.78C62.1146 26.0733 61.3959 26.22 60.5159 26.22ZM68.7791 26C68.6324 26 68.5151 25.956 68.4271 25.868C68.3391 25.78 68.2951 25.6627 68.2951 25.516V15.066C68.2951 14.9193 68.3391 14.802 68.4271 14.714C68.5151 14.6113 68.6324 14.56 68.7791 14.56H69.1311C69.2778 14.56 69.3951 14.6113 69.4831 14.714C69.5858 14.802 69.6371 14.9193 69.6371 15.066V16.078C70.1651 15.066 71.1624 14.56 72.6291 14.56H73.4431C73.5898 14.56 73.7071 14.604 73.7951 14.692C73.8831 14.78 73.9271 14.8973 73.9271 15.044V15.352C73.9271 15.4987 73.8831 15.616 73.7951 15.704C73.7071 15.792 73.5898 15.836 73.4431 15.836H72.4971C71.6171 15.836 70.9204 16.0927 70.4071 16.606C69.8938 17.1193 69.6371 17.816 69.6371 18.696V25.516C69.6371 25.6627 69.5858 25.78 69.4831 25.868C69.3951 25.956 69.2778 26 69.1311 26H68.7791ZM75.6495 30.18C75.5029 30.18 75.3855 30.136 75.2975 30.048C75.2095 29.96 75.1655 29.8427 75.1655 29.696V15.044C75.1655 14.8973 75.2095 14.78 75.2975 14.692C75.3855 14.604 75.5029 14.56 75.6495 14.56H76.0235C76.1702 14.56 76.2875 14.604 76.3755 14.692C76.4635 14.78 76.5075 14.8973 76.5075 15.044V16.078C77.3582 14.9193 78.5902 14.34 80.2035 14.34C81.7875 14.34 82.9535 14.846 83.7015 15.858C84.4642 16.8553 84.8675 18.0873 84.9115 19.554C84.9262 19.7007 84.9335 19.9427 84.9335 20.28C84.9335 20.6173 84.9262 20.8593 84.9115 21.006C84.8675 22.4727 84.4642 23.712 83.7015 24.724C82.9535 25.7213 81.7875 26.22 80.2035 26.22C78.6049 26.22 77.3729 25.6407 76.5075 24.482V29.696C76.5075 29.8427 76.4635 29.96 76.3755 30.048C76.2875 30.136 76.1702 30.18 76.0235 30.18H75.6495ZM80.0715 24.944C81.2595 24.944 82.1249 24.57 82.6675 23.822C83.2249 23.0593 83.5255 22.084 83.5695 20.896C83.5842 20.7493 83.5915 20.544 83.5915 20.28C83.5915 18.916 83.3275 17.8013 82.7995 16.936C82.2715 16.056 81.3622 15.616 80.0715 15.616C78.9129 15.616 78.0402 16.0047 77.4535 16.782C76.8669 17.5447 76.5515 18.4467 76.5075 19.488L76.4855 20.346L76.5075 21.204C76.5222 21.8347 76.6615 22.436 76.9255 23.008C77.1895 23.5653 77.5855 24.0273 78.1135 24.394C78.6415 24.7607 79.2942 24.944 80.0715 24.944ZM87.6327 26C87.4861 26 87.3687 25.956 87.2807 25.868C87.1927 25.78 87.1487 25.6627 87.1487 25.516V10.864C87.1487 10.7173 87.1927 10.6 87.2807 10.512C87.3687 10.424 87.4861 10.38 87.6327 10.38H88.0067C88.1534 10.38 88.2707 10.424 88.3587 10.512C88.4467 10.6 88.4907 10.7173 88.4907 10.864V25.516C88.4907 25.6627 88.4467 25.78 88.3587 25.868C88.2707 25.956 88.1534 26 88.0067 26H87.6327ZM95.5141 26.22C94.1208 26.22 92.9988 25.7653 92.1481 24.856C91.2975 23.932 90.8135 22.7 90.6961 21.16L90.6741 20.28L90.6961 19.4C90.8135 17.8747 91.2901 16.65 92.1261 15.726C92.9768 14.802 94.1061 14.34 95.5141 14.34C97.0395 14.34 98.2275 14.846 99.0781 15.858C99.9435 16.87 100.376 18.256 100.376 20.016V20.346C100.376 20.4927 100.325 20.61 100.222 20.698C100.134 20.786 100.017 20.83 99.8701 20.83H92.0381V21.05C92.0675 21.7393 92.2215 22.3847 92.5001 22.986C92.7935 23.5727 93.1968 24.0493 93.7101 24.416C94.2235 24.768 94.8248 24.944 95.5141 24.944C96.3208 24.944 96.9735 24.79 97.4721 24.482C97.9855 24.1593 98.3521 23.8367 98.5721 23.514C98.7041 23.338 98.7995 23.228 98.8581 23.184C98.9315 23.14 99.0561 23.118 99.2321 23.118H99.5841C99.7161 23.118 99.8261 23.1547 99.9141 23.228C100.002 23.3013 100.046 23.3967 100.046 23.514C100.046 23.822 99.8481 24.196 99.4521 24.636C99.0708 25.0613 98.5355 25.4353 97.8461 25.758C97.1568 26.066 96.3795 26.22 95.5141 26.22ZM99.0341 19.598V19.51C99.0341 18.3807 98.7115 17.4493 98.0661 16.716C97.4355 15.9827 96.5848 15.616 95.5141 15.616C94.4435 15.616 93.5928 15.9827 92.9621 16.716C92.3461 17.4493 92.0381 18.3807 92.0381 19.51V19.598H99.0341ZM102.984 30.18C102.837 30.18 102.72 30.136 102.632 30.048C102.544 29.96 102.5 29.8427 102.5 29.696V15.044C102.5 14.8973 102.544 14.78 102.632 14.692C102.72 14.604 102.837 14.56 102.984 14.56H103.358C103.505 14.56 103.622 14.604 103.71 14.692C103.798 14.78 103.842 14.8973 103.842 15.044V16.078C104.693 14.9193 105.925 14.34 107.538 14.34C109.122 14.34 110.288 14.846 111.036 15.858C111.799 16.8553 112.202 18.0873 112.246 19.554C112.261 19.7007 112.268 19.9427 112.268 20.28C112.268 20.6173 112.261 20.8593 112.246 21.006C112.202 22.4727 111.799 23.712 111.036 24.724C110.288 25.7213 109.122 26.22 107.538 26.22C105.939 26.22 104.707 25.6407 103.842 24.482V29.696C103.842 29.8427 103.798 29.96 103.71 30.048C103.622 30.136 103.505 30.18 103.358 30.18H102.984ZM107.406 24.944C108.594 24.944 109.459 24.57 110.002 23.822C110.559 23.0593 110.86 22.084 110.904 20.896C110.919 20.7493 110.926 20.544 110.926 20.28C110.926 18.916 110.662 17.8013 110.134 16.936C109.606 16.056 108.697 15.616 107.406 15.616C106.247 15.616 105.375 16.0047 104.788 16.782C104.201 17.5447 103.886 18.4467 103.842 19.488L103.82 20.346L103.842 21.204C103.857 21.8347 103.996 22.436 104.26 23.008C104.524 23.5653 104.92 24.0273 105.448 24.394C105.976 24.7607 106.629 24.944 107.406 24.944ZM114.703 12.206C114.556 12.206 114.439 12.162 114.351 12.074C114.263 11.986 114.219 11.8687 114.219 11.722V10.886C114.219 10.7393 114.263 10.622 114.351 10.534C114.439 10.4313 114.556 10.38 114.703 10.38H115.539C115.686 10.38 115.803 10.4313 115.891 10.534C115.994 10.622 116.045 10.7393 116.045 10.886V11.722C116.045 11.8687 115.994 11.986 115.891 12.074C115.803 12.162 115.686 12.206 115.539 12.206H114.703ZM114.945 26C114.798 26 114.681 25.956 114.593 25.868C114.505 25.78 114.461 25.6627 114.461 25.516V15.044C114.461 14.8973 114.505 14.78 114.593 14.692C114.681 14.604 114.798 14.56 114.945 14.56H115.319C115.466 14.56 115.583 14.604 115.671 14.692C115.759 14.78 115.803 14.8973 115.803 15.044V25.516C115.803 25.6627 115.759 25.78 115.671 25.868C115.583 25.956 115.466 26 115.319 26H114.945ZM122.696 26.22C121.112 26.22 119.938 25.7067 119.176 24.68C118.428 23.6387 118.032 22.3773 117.988 20.896L117.966 20.28L117.988 19.664C118.032 18.1827 118.428 16.9287 119.176 15.902C119.938 14.8607 121.112 14.34 122.696 14.34C124.294 14.34 125.526 14.9193 126.392 16.078V10.864C126.392 10.7173 126.436 10.6 126.524 10.512C126.612 10.424 126.729 10.38 126.876 10.38H127.25C127.396 10.38 127.514 10.424 127.602 10.512C127.69 10.6 127.734 10.7173 127.734 10.864V25.516C127.734 25.6627 127.69 25.78 127.602 25.868C127.514 25.956 127.396 26 127.25 26H126.876C126.729 26 126.612 25.956 126.524 25.868C126.436 25.78 126.392 25.6627 126.392 25.516V24.482C125.541 25.6407 124.309 26.22 122.696 26.22ZM122.828 24.944C123.986 24.944 124.859 24.5627 125.446 23.8C126.032 23.0227 126.348 22.1133 126.392 21.072C126.406 20.9253 126.414 20.6393 126.414 20.214C126.414 19.7887 126.406 19.5027 126.392 19.356C126.377 18.7253 126.238 18.1313 125.974 17.574C125.71 17.002 125.314 16.5327 124.786 16.166C124.258 15.7993 123.605 15.616 122.828 15.616C121.64 15.616 120.767 15.9973 120.21 16.76C119.667 17.508 119.374 18.476 119.33 19.664L119.308 20.28C119.308 21.644 119.572 22.766 120.1 23.646C120.628 24.5113 121.537 24.944 122.828 24.944Z" fill="#771BFF"/>
<circle cx="18" cy="18" r="17.5" stroke="#ffffff"/>
<circle cx="18" cy="18" r="4.90909" fill="#ffffff"/>
</svg>
