<?xml version="1.0" standalone="no"?>
<!DOCTYPE svg PUBLIC "-//W3C//DTD SVG 20010904//EN"
 "http://www.w3.org/TR/2001/REC-SVG-20010904/DTD/svg10.dtd">
<svg version="1.0" xmlns="http://www.w3.org/2000/svg"
 width="288.000000pt" height="288.000000pt" viewBox="0 0 288.000000 288.000000"
 preserveAspectRatio="xMidYMid meet">
<metadata>
Created by potrace 1.11, written by Peter Selinger 2001-2013
</metadata>
<g transform="translate(0.000000,288.000000) scale(0.100000,-0.100000)"
fill="#000000" stroke="none">
<path d="M1285 2873 c-176 -23 -349 -75 -486 -143 -351 -177 -618 -492 -734
-865 -49 -161 -64 -272 -60 -455 8 -389 145 -710 420 -986 206 -206 441 -334
728 -396 148 -31 428 -31 574 0 375 81 698 297 904 604 175 262 250 517 244
833 -6 392 -142 712 -420 991 -208 208 -458 342 -746 399 -80 16 -354 28 -424
18z m365 -88 c84 -15 211 -50 280 -77 84 -33 213 -98 218 -110 2 -5 8 -8 14
-8 19 0 173 -123 243 -194 190 -194 333 -465 371 -703 3 -20 8 -45 11 -57 12
-50 10 -324 -3 -400 -54 -314 -181 -558 -402 -774 -155 -151 -406 -294 -592
-337 -8 -2 -36 -8 -62 -14 -116 -27 -339 -35 -476 -18 -275 34 -565 180 -772
387 -89 89 -106 110 -175 215 -115 175 -178 339 -212 555 -9 59 -10 298 -1
379 14 118 70 295 135 426 24 48 122 200 153 239 34 41 168 174 210 207 123
98 285 185 437 234 87 28 95 30 213 50 75 13 339 13 410 0z"/>
<path d="M1313 1812 c-101 -36 -180 -109 -231 -212 -24 -49 -27 -66 -27 -160
0 -92 3 -112 26 -160 38 -82 109 -154 187 -192 63 -31 73 -33 172 -33 92 0
112 3 160 26 119 56 200 160 223 286 33 176 -51 347 -210 425 -57 28 -78 33
-157 35 -69 3 -103 -1 -143 -15z"/>
</g>
</svg>
